<svg xmlns="http://www.w3.org/2000/svg" xmlns:xlink="http://www.w3.org/1999/xlink" width="41.531" height="41" viewBox="0 0 41.531 41"><defs><style>.a{fill:#21a366;}.b{fill:#185c37;}.c,.m{fill:#107c41;}.d{fill:#33c481;}.e{fill:#fff;}.f{opacity:0.67;}.g{opacity:0.05;}.h{opacity:0.1;}.i{opacity:0.2;}.j{opacity:0.01;}.k{opacity:0.3;}.l{opacity:0.15;}.m{font-size:14px;font-family:Material-Design-Iconic-Font;}.n{filter:url(#a);}</style><filter id="a" x="8.531" y="8" width="33" height="33" filterUnits="userSpaceOnUse"><feOffset dy="3" input="SourceAlpha"/><feGaussianBlur stdDeviation="3" result="b"/><feFlood flood-opacity="0.161"/><feComposite operator="in" in2="b"/><feComposite in="SourceGraphic"/></filter></defs><g transform="translate(-2348.469 -934)"><path class="a" d="M246.937,68.25h18.93a1.14,1.14,0,0,1,.839.361,1.287,1.287,0,0,1,.346.875V92.955a1.287,1.287,0,0,1-.346.876,1.14,1.14,0,0,1-.839.36h-18.93a1.2,1.2,0,0,1-1.177-1.229V69.486a1.207,1.207,0,0,1,1.17-1.236Z" transform="translate(2109.81 865.75)"/><path class="b" d="M245.759,85.88V97.651a1.2,1.2,0,0,0,1.148,1.258h18.959a1.207,1.207,0,0,0,1.184-1.236V85.9Z" transform="translate(2109.81 861.091)"/><path class="c" d="M245.76,77.07h21.291v6.489H245.76Z" transform="translate(2109.809 863.419)"/><path class="d" d="M269.691,68.25H260.23V87.71h10.646V69.486a1.288,1.288,0,0,0-.346-.876A1.14,1.14,0,0,0,269.691,68.25Z" transform="translate(2105.985 865.75)"/><path class="a" d="M260.23,77.07h10.653v6.489H260.23Z" transform="translate(2105.985 863.419)"/><path class="c" d="M260.23,85.88h10.653v6.489H260.23Z" transform="translate(2105.985 861.091)"/><g class="n" transform="matrix(1, 0, 0, 1, 2348.47, 934)"><circle class="e" cx="7.5" cy="7.5" r="7.5" transform="translate(17.53 14)"/></g><g class="f" transform="translate(2355.422 938.878)"><path class="g" d="M253.619,75.45h-6.187a.456.456,0,0,0-.441.463V90.341a.456.456,0,0,0,.441.471h6.187a.9.9,0,0,0,.883-.927V76.377A.9.9,0,0,0,253.619,75.45Z" transform="translate(-245.938 -75.031)"/><path class="h" d="M251.676,78.76H245.79V93.651h5.886a1.2,1.2,0,0,0,1.192-1.2V79.944a1.2,1.2,0,0,0-1.192-1.184Z" transform="translate(-245.621 -75.905)"/><path class="i" d="M251.676,77.59H245.79V92.466h5.886a1.2,1.2,0,0,0,1.192-1.192V78.767A1.2,1.2,0,0,0,251.676,77.59Z" transform="translate(-245.621 -75.596)"/><path class="h" d="M253.151,75.85h-6.18a.456.456,0,0,0-.441.456V90.741a.449.449,0,0,0,.441.463h6.18a.9.9,0,0,0,.89-.927V76.77a.89.89,0,0,0-.883-.92Z" transform="translate(-245.816 -75.136)"/><path class="h" d="M253.139,76.36h-6.187a.456.456,0,0,0-.441.471v14.28a.464.464,0,0,0,.441.463h6.187a.9.9,0,0,0,.861-.949V77.287a.9.9,0,0,0-.861-.927Z" transform="translate(-245.811 -75.271)"/><path class="j" d="M251.908,74.88h-6.18V86.99h-.088v1.9a.449.449,0,0,0,.441.456L251,88.4c.493,0,1.8-.441,1.8-.949V75.807a.9.9,0,0,0-.89-.927Z" transform="translate(-245.581 -74.88)"/><path class="i" d="M251.676,78.15H245.79V93.026h5.886a1.2,1.2,0,0,0,1.192-1.192V79.327A1.2,1.2,0,0,0,251.676,78.15Z" transform="translate(-245.621 -75.744)"/><path class="k" d="M251.686,76.38H245.8V90.932h5.886a1.192,1.192,0,0,0,1.184-1.192V77.572a1.192,1.192,0,0,0-1.185-1.192Z" transform="translate(-245.623 -75.276)"/><path class="k" d="M251.676,76.38H245.79V90.888h5.886a1.192,1.192,0,0,0,1.192-1.192V77.572A1.192,1.192,0,0,0,251.676,76.38Z" transform="translate(-245.621 -75.276)"/><path class="k" d="M251.676,76.78H245.79V91.656h5.886a1.184,1.184,0,0,0,1.192-1.192V77.957A1.2,1.2,0,0,0,251.676,76.78Z" transform="translate(-245.621 -75.382)"/><path class="i" d="M251.676,77.16H245.79V92.036h5.886a1.207,1.207,0,0,0,1.192-1.207V78.322a1.192,1.192,0,0,0-1.192-1.162Z" transform="translate(-245.621 -75.483)"/><path class="h" d="M252.939,77h-6.18a.449.449,0,0,0-.449.463V90.978a.456.456,0,0,0,.449.463h6.18a.9.9,0,0,0,.883-.927V77.89A.9.9,0,0,0,252.939,77Z" transform="translate(-245.758 -75.44)"/><path class="i" d="M252.114,76.987h-6.173a.25.25,0,0,0-.162,0v14.1a.64.64,0,0,0,.162,0h6.187a.9.9,0,0,0,.883-.927V77.877a.9.9,0,0,0-.883-.927Z" transform="translate(-245.618 -75.427)"/><path class="k" d="M250.5,75.86H246a.449.449,0,0,0-.441.463V89.861a.456.456,0,0,0,.441.456h6.187a.9.9,0,0,0,.883-.92V77.192c0-.544-1.2-.846-1.332-1.015a2.619,2.619,0,0,0-1.236-.316Z" transform="translate(-245.56 -75.139)"/><path class="h" d="M252.539,77.85h-6.187a.463.463,0,0,0-.441.463V91.858a.456.456,0,0,0,.441.471h6.187a.912.912,0,0,0,.883-.92V78.777a.9.9,0,0,0-.875-.927Z" transform="translate(-245.652 -75.665)"/><path class="h" d="M251.908,75.23h-6.18V87.347h-.088v1.9a.449.449,0,0,0,.441.463L251,88.76c.493,0,1.8-.441,1.8-.949V76.157a.9.9,0,0,0-.89-.927Z" transform="translate(-245.581 -74.973)"/><path class="l" d="M251.908,75.55h-6.18v12.1h-.088v1.891a.449.449,0,0,0,.441.464L251,89.065c.493,0,1.8-.441,1.8-.949V76.477a.9.9,0,0,0-.89-.927Z" transform="translate(-245.581 -75.057)"/></g><path class="c" d="M237.294,75.8h11.83a1.221,1.221,0,0,1,1.184,1.243V89.4a1.221,1.221,0,0,1-1.162,1.265H237.294a1.207,1.207,0,0,1-1.184-1.236V77.043a1.221,1.221,0,0,1,1.184-1.243Z" transform="translate(2112.36 863.755)"/><path class="e" d="M240.49,88.935l2.788-4.547-2.56-4.488h2.06l1.39,2.869a6.841,6.841,0,0,1,.265.633c.088-.213.191-.434.294-.633l1.471-2.847h1.891l-2.6,4.466,2.685,4.539h-2.016L244.544,85.8a4.368,4.368,0,0,1-.2-.419,2.038,2.038,0,0,1-.191.4L242.5,88.942Z" transform="translate(2111.202 862.671)"/><text class="m" transform="matrix(-1, 0, 0, 1, 2378, 961)"><tspan x="0" y="0"></tspan></text></g></svg>