<svg xmlns="http://www.w3.org/2000/svg" width="36.889" height="36.889" viewBox="0 0 36.889 36.889"><defs><style>.a{fill:none;stroke:#333;stroke-width:2px;}.a,.b{fill-rule:evenodd;}.b{fill:#333;}</style></defs><g transform="translate(-909.111 -800.349)"><path class="a" d="M454.837,135.554a17.444,17.444,0,1,1-17.444-17.444,17.444,17.444,0,0,1,17.444,17.444Z" transform="translate(490.163 683.239)"/><path class="b" d="M443.508,150.669a1.939,1.939,0,1,1-1.939-1.939,1.939,1.939,0,0,1,1.939,1.939m13.568,0a1.939,1.939,0,1,1-1.939-1.939,1.939,1.939,0,0,1,1.939,1.939" transform="translate(479.201 666.187)"/><path class="b" d="M420.24,161.509a10.318,10.318,0,0,1-17.444.08l17.444-.08" transform="translate(516.038 662.13)"/></g></svg>
