<svg xmlns="http://www.w3.org/2000/svg" width="36.889" height="36.889" viewBox="0 0 36.889 36.889"><defs><style>.a,.b{fill:none;stroke:#333;stroke-width:2px;}.a,.b,.c{fill-rule:evenodd;}.b{stroke-linecap:round;}.c{fill:#333;}</style></defs><g transform="translate(-644 -800.349)"><path class="a" d="M34.889,135.554A17.444,17.444,0,1,1,17.444,118.11a17.444,17.444,0,0,1,17.444,17.444Z" transform="translate(645 683.239)"/><path class="b" d="M21.624,154.74a6.381,6.381,0,0,1,.327-.846,7.191,7.191,0,0,1,13.241.848M19.685,133.42l4.846,3.877m12.6-3.877L32.284,137.3" transform="translate(634.037 674.713)"/><path class="c" d="M23.6,150.612a1.939,1.939,0,1,1-1.939-1.939,1.939,1.939,0,0,1,1.939,1.939m13.551.025a1.938,1.938,0,1,1-1.938-1.938,1.939,1.939,0,0,1,1.938,1.938" transform="translate(634.017 666.218)"/></g></svg>
