<svg xmlns="http://www.w3.org/2000/svg" width="36.889" height="36.889" viewBox="0 0 36.889 36.889"><defs><style>.a{}.b,.d{fill:none;stroke:#333;stroke-width:2px;}.b,.c,.d{fill-rule:evenodd;}.c{fill:#333;}.d{stroke-linecap:round;}</style></defs><g class="a" transform="translate(1 1)"><path class="b" d="M349.849,135.554A17.444,17.444,0,1,1,332.4,118.11a17.444,17.444,0,0,1,17.444,17.444Z" transform="translate(-314.96 -118.11)"/><path class="c" d="M338.521,150.669a1.939,1.939,0,1,1-1.939-1.939,1.939,1.939,0,0,1,1.939,1.939m13.568,0a1.938,1.938,0,1,1-1.939-1.938,1.939,1.939,0,0,1,1.939,1.938" transform="translate(-326.335 -135.163)"/><path class="d" d="M304.37,170.651A7.305,7.305,0,0,0,316,170.6" transform="translate(-293.278 -147.344)"/></g></svg>
