<svg xmlns="http://www.w3.org/2000/svg" width="36.889" height="36.889" viewBox="0 0 36.889 36.889"><defs><style>.a,.b{fill:none;stroke:#333;stroke-width:2px;}.a,.b,.c{fill-rule:evenodd;}.b{stroke-linecap:round;}.c{fill:#333;}</style></defs><g transform="translate(-448.278 -299.349)"><path class="a" d="M139.876,135.554a17.444,17.444,0,1,1-17.444-17.444,17.444,17.444,0,0,1,17.444,17.444Z" transform="translate(344.291 182.239)"/><path class="b" d="M129.046,175.7a3.276,3.276,0,0,1,.327-.507c1.106-1.414,3.581-2.4,6.456-2.4,3.209,0,5.919,1.226,6.785,2.908" transform="translate(331.389 151.787)"/><path class="c" d="M128.547,150.669a1.939,1.939,0,1,1-1.939-1.939,1.939,1.939,0,0,1,1.939,1.939m11.631,1.939a1.938,1.938,0,1,1,1.938-1.938,1.938,1.938,0,0,1-1.938,1.938Z" transform="translate(333.742 165.187)"/></g></svg>
