<svg xmlns="http://www.w3.org/2000/svg" width="36.889" height="36.889" viewBox="0 0 36.889 36.889"><defs><style>.a,.b{fill:none;stroke:#333;stroke-width:2px;}.a,.b,.c{fill-rule:evenodd;}.b{stroke-linecap:round;}.c{fill:#333;}</style></defs><g transform="translate(-514.556 -299.349)"><path class="a" d="M227.418,153a17.444,17.444,0,1,1,17.444-17.444A17.444,17.444,0,0,1,227.418,153Z" transform="translate(305.582 182.239)"/><path class="b" d="M236.22,173.434h11.63" transform="translate(290.965 152.106)"/><path class="c" d="M233.534,150.669a1.939,1.939,0,1,1-1.939-1.939,1.939,1.939,0,0,1,1.939,1.939m13.568,0a1.938,1.938,0,1,1-1.939-1.938,1.939,1.939,0,0,1,1.939,1.938" transform="translate(294.62 165.187)"/></g></svg>
